<mxfile host="app.diagrams.net" modified="2023-04-29T08:22:03.782Z" agent="Mozilla/5.0 (X11; Linux x86_64) AppleWebKit/537.36 (KHTML, like Gecko) Chrome/111.0.0.0 Safari/537.36 Edg/111.0.1661.43" version="21.2.3" etag="TiOE3E9GJxwgPDCYa5BM" type="github">
  <diagram name="Page-1" id="dRD3m-e_WeQprJciAMbu">
    <mxGraphModel>
      <root>
        <mxCell id="0" />
        <mxCell id="1" parent="0" />
      </root>
    </mxGraphModel>
  </diagram>
</mxfile>
